<svg enable-background="new 0 0 1024 1024" viewBox="0 0 1024 1024" xmlns="http://www.w3.org/2000/svg"><path d="m566 1025c-188.666656 0-376.833328 0-565 0 0-341.333313 0-682.666656 0-1024h1024v1024c-152.833313 0-305.666687 0-459 0m-486.033028-437.5c.006684 70.322021-.168289 140.644836.157509 210.965393.074372 16.049866 1.002434 32.206848 3.090882 48.110474 3.131301 23.845092 13.49189 44.681701 30.102478 62.212036 23.441497 24.73938 53.164123 35.932983 86.340225 36.001037 207.30339.424988 414.608108.262513 621.912185.061707 9.852051-.009522 19.831299-1.584778 29.528016-3.538879 25.562255-5.151429 46.297058-18.749329 63.247192-38.251343 8.460144-9.733826 15.039734-20.744873 19.395508-32.898865 7.083618-19.765137 9.099609-40.477356 9.122314-61.205933.212891-194.305847.169495-388.61206.055725-582.91806-.007263-12.423599-1.200134-24.847259-1.865844-37.269577-.913514-17.045227-5.665039-32.987488-14.073853-47.807358-12.016785-21.178619-29.21637-36.967865-51.108093-47.380714-17.830872-8.481346-37.112305-11.466995-56.617676-11.484566-196.972168-.177399-393.94458-.136764-590.916931-.085487-11.460129.002983-22.925552.500068-34.378754.993728-13.985229.602807-27.666763 2.93837-40.772674 8.061219-29.710327 11.613205-50.779984 32.128509-63.207924 61.497535-7.915802 18.706223-9.827065 38.573075-9.865372 58.490555-.240654 125.148667-.135757 250.297989-.144913 376.447098z" fill="#fefdfc"/><path d="m79.966873 587c.009255-125.649109-.095642-250.798431.145012-375.947098.038307-19.91748 1.94957-39.784332 9.865372-58.490555 12.42794-29.369026 33.497597-49.88433 63.207924-61.497535 13.105911-5.122849 26.787445-7.458412 40.772674-8.061219 11.453202-.49366 22.918625-.990745 34.378754-.993728 196.972351-.051277 393.944763-.091912 590.916931.085487 19.505371.017571 38.786804 3.00322 56.617676 11.484566 21.891723 10.412849 39.091308 26.202095 51.108093 47.380714 8.408814 14.81987 13.160339 30.762131 14.073853 47.807358.66571 12.422318 1.858581 24.845978 1.865844 37.269577.11377 194.306.157166 388.612213-.055725 582.91806-.022705 20.728577-2.038696 41.440796-9.122314 61.205933-4.355774 12.153992-10.935364 23.165039-19.395508 32.898865-16.950134 19.502014-37.684937 33.099914-63.247192 38.251343-9.696717 1.954101-19.675965 3.529357-29.528016 3.538879-207.304077.200806-414.608795.363281-621.912185-.061707-33.176102-.068054-62.898728-11.261657-86.340225-36.001037-16.610588-17.530335-26.971177-38.366944-30.102478-62.212036-2.088448-15.903626-3.01651-32.060608-3.090882-48.110474-.325798-70.320557-.150825-140.643372-.157608-211.465393m460.014694 34.981873s-.07312-.020691.410645-.220093c.189758-.284485.379517-.568909.589416-.780152 0 0-.073242-.020141.410828-.219787.189758-.284729.379517-.569458.588928-.781006 0 0-.073364-.019043.411011-.218872.18988-.284973.379761-.569885.588745-.781555 0 0-.073547-.018128.411255-.218384.190125-.285278.380249-.570496.592773-.784973 0 0-.073913-.006714.445313-.272156.166626-.343445.333252-.686951.819092-1.589355 6.195801-6.054871 12.391662-12.109681 19.41156-18.12677 1.763061-.563416 3.526184-1.12677 6.049133-1.867066.778076-.012817 1.556152-.025635 2.794373.485474 1.146972-.372132 2.293945-.744263 3.923889-1.377625.543457-.034607 1.086853-.069214 2.042053.381226.823242-.332337 1.646545-.664673 2.924561-1.324341.551452-.058899 1.102966-.117798 1.992004.271179.590637-.263 1.181213-.526001 1.986206-.821045 0 0 .080933.201111.929077.21875.882263-.486328 1.764527-.972656 3.243042-1.798462 27.525452-9.351379 47.251648-27.113281 57.889588-54.348022 7.488464-19.17157 7.635498-38.825958 3.603881-58.711151 46.30481-.027588 92.609803-.00354 138.914124-.166077 4.415466-.015472 9.02063-.59491 13.206421-1.941925 17.570007-5.654205 27.634582-18.204224 32.372742-36.492889.1557-.970642.446716-1.941193.447448-2.911927.023865-32.270752.030091-64.541534-.018982-96.812194-.001892-1.236451-.578369-2.472016-.950561-4.651581.001098-36.453552.028503-72.907135-.014832-109.360642-.011169-9.414642-3.692077-17.373367-9.984436-24.28479-6.21228-6.823532-14.433471-9.802521-23.507507-13.004226-1.802429-.157517-3.604797-.450959-5.407349-.452378-33.44403-.02652-66.888061-.017746-100.332092-.01738-56.738403.000611-113.476807-.016418-170.215088.076661-1.837463.003021-3.673096 1.127975-5.986389 1.892471-.163757.037384-.327454.074753-1.288025.076019-1.449951.318283-2.913391.58516-4.347717.96283-13.80777 3.635727-26.14801 17.451675-26.994751 30.555511-.05188.167908-.10379.335831-.902222.693116-.343017 1.5363-.984894 3.072402-.985962 4.608947-.042999 61.991745-.028106 123.983506-.941772 186.070298-3.712738.070037-7.425446.140106-11.992462.13681-1.715119-.042908-3.430207-.085846-5.724274-.700714-5.287476-.50232-10.607514-1.231446-15.985565 2.495178-1.781952.400268-3.579315.742187-5.343598 1.209167-59.065643 15.635804-83.925537 80.196106-58.129028 130.055268 11.816803 22.839477 30.819763 37.468811 55.400024 46.136963 2.243042.570251 4.486084 1.140442 7.220612 1.768921 0 0 .493896.031616.99884.577331 1.502259.122376 3.004547.244751 5.022705.443909.169953.036865.339875.073669 1.088654.630554 6.923065.437988 13.840729 1.040039 20.770721 1.266785 6.641205.217407 13.29599-.019104 19.943268.066833 4.616577.059631 11.198822-1.427917 13.3302.961975 2.47284 2.772766.836243 9.054077 1.373963 13.767945.317383 2.781982 1.391357 5.4776 2.531433 8.56781.143433.514343.286865 1.028686.474182 2.232422.439697.460632.879334.921203 1.653626 1.53247.202026.162354.317626.372315.333862 1.249024.624145.258545 1.248352.517151 2.598083.966064 5.897461 3.11023 11.007202.932434 16.533875-2.511841.256225-.291992.512512-.583923.776184-.802185 0 0-.068726-.027405.41449-.227112.189758-.284179.379577-.568298.589843-.779174 0 0-.073181-.020935.410279-.220459.189758-.284302.379516-.568604.58966-.779602m-105.962097 17.038635s.012146.073547.546967-.064026c.176025-.308899.352051-.617798.455688-.94165 0 0 .000489.073913.563141-.076905.251373-.292724.502747-.585449 1.317139-1.185974 3.04898-3.162536 6.097992-6.325073 9.639007-9.794495.231263-.305725.462525-.611389 1.19104-1.142944.431427-.568725.862885-1.137451 1.844239-2.146118 4.000244-6.075073 3.809143-12.025574-.621582-18.255188-.135651-.266174-.350861-.423645-.954407-.958557-.326447-.18158-.652893-.363159-.977539-.470459 0 0 .072845-.014954-.084442-.536255-.304871-.182068-.609742-.364136-.915528-.46991 0 0 .069641-.031128-.299591-.558715-1.551635-.67804-3.103271-1.35608-5.521637-2.313172-5.777435-.753723-11.072906.090149-15.753418 4.897156-.179809.324707-.359619.649414-.465973.980469 0 0-.006256-.073548-.551025.086731-.235596.292663-.471222.585327-1.272064 1.191589-8.28064 8.267578-16.561249 16.535156-25.406159 24.955322-.242065.292176-.4841.584351-.722839.800904 0 0 .073303.018676-.417328.220031-.192108.288391-.384186.576844-.555389.779053 0 0 .082245.033142-.413117.209656-.193542.281433-.387085.562805-1.072876 1.022156-.176056.292968-.352081.585937-.55838.797546 0 0 .084412-.020447-.428009.228577-.177185.327819-.35437.655639-.792602 1.498474-.855042.763794-1.710083 1.527588-3.535767 2.243347-23.830353.01654-47.660706.033081-72.05777-.270508-4.66098-4.595032-9.321991-9.190124-14.267975-14.281372-.296814-.235535-.593597-.471069-1.079864-1.190918-.520325-.443481-1.04068-.886902-1.866913-1.811829-.321289-.184631-.642548-.369262-.955444-.479065 0 0 .072967-.018798-.089905-.527343-.306763-.138489-.613556-.276978-1.461456-.817871-5.85788-6.058716-11.336304-12.569031-17.753632-17.962037-2.704315-2.272583-7.403198-3.043151-11.171295-2.982971-6.335053.101075-10.773193 3.93689-13.187409 9.828003-2.577179 6.288697-.899032 11.886719 3.62967 16.473816 5.333709 5.402588 11.071472 10.406189 16.634033 15.582825-4.428894 2.068848-8.023621 3.732178-11.302918 3.250061-11.055877-1.625549-21.478363.772583-31.662368 4.25293-18.576233 6.348388-31.965668 18.002136-36.729096 38.600402-.345062.78534-.690124 1.570618-1.514664 2.735047-.132675 1.546692-.26535 3.093445-.417648 5.142761-.041748.162415-.083496.324768-.663269 1.010803-.779358 6.634094-1.924438 13.25177-2.224091 19.907471-.246521 5.474853.510148 10.994934.949891 17.382019-.063156 2.386719-.126328 4.773499-.961014 7.354736-.362671.850952-1.053162 1.707093-1.039627 2.552002.274795 17.149292.622436 34.297425 1.00299 51.444763.012955.583802.51857 1.1568.918686 2.561951.034256 1.392944.068512 2.785828-.477569 4.661865.450699 3.836609.901398 7.673157 1.475555 12.173523.033432.448792.06688.897583-.426361 1.771241.434555 2.188781.86911 4.377624 1.429642 7.020446 0 0 .051269.468506.022262 1.214478.310852 1.120727.621705 2.241455 1.005509 3.809448 0 0 .02095.452576-.004089 1.247193.65538 1.773193 1.310775 3.546386 2.078887 5.684509 0 0-.019027.38147-.063079 1.188843 1.036132 2.138 2.072265 4.275939 3.029235 6.436523 0 0 .01561-.080872.034913.594421.425201.455017.850418.910035 1.635788 1.642701.112854.432373.225708.864685.46376 1.910217.282242.288208.564484.576416.80397.868469 0 0 .023041-.036255.082764.614746.410965.44513.82193.89032 1.706222 1.660889.392395.645569.78479 1.291077 1.300034 2.524109.409821.382202.819641.764404 1.768646 1.503174 10.799835 12.732544 24.920105 18.848144 41.192505 20.695312 7.862854.892456 15.721283 1.823792 24.243042 3.366638 4.88678-.08435 9.77359-.16864 15.428803-.358947.771209.055969 1.54245.111938 2.509857.932128 1.195923.353028 2.391449 1.013062 3.587829 1.014649 40.40857.054016 80.817231.063171 121.225647-.033692 1.316925-.003173 2.631012-1.180419 4.624115-1.954834.457703.041749.915406.083558 1.970673.691651 5.121429-.217529 10.242859-.435059 16.284149-.647949 3.82077-.443787 7.641571-.887635 11.85437-1.611023.397125-.034363.627198.145019 1.658905.572815 3.946686-.350953 8.337494 1.313354 11.983918-2.806397.536376-.030517 1.072784-.061035 1.964019.373718.612213-.28833 1.224427-.576721 2.371186-1.298584 3.061645-1.122741 6.123291-2.245483 9.875824-3.482971 12.673095-5.955627 22.462951-14.840393 28.43045-28.238098 0 0 .063355-.4729-.012848-.49762 0 0 .013672.07898.430145-.211425.333527-.575013.667054-1.149964 1.737366-1.976685 1.268616-2.971313 3.023987-5.832641 3.724365-8.932373 3.68451-16.306946 3.455689-32.982483 3.958374-49.549072.453247-14.935364.149048-29.895752.017334-44.843628-.013244-1.497193-1.146606-2.984436-1.880981-5.286438.025085-1.089295.050171-2.17865.629272-3.857178.10199-6.509949 2.116578-13.049316-.456543-19.532837-.384948-.969909.006836-2.280761.146119-3.420837 1.082397-8.863037-2.135437-16.79419-5.370575-24.712219-.13617-.333191-.85611-.427918-1.752686-1.12732-8.892975-19.125549-24.903381-28.359253-44.860962-31.490295-8.990845-1.410523-18.189209-1.474365-27.280273-2.294922-1.382325-.124756-2.693024-1.043213-3.452576-1.8125.501801-.627991 1.003601-1.255981 1.44693-1.939941 0 0-.047699.065368.489197-.068909.174774-.309815.349579-.61969.4505-.939331z" fill="#dfdedd"/><path d="m579.058838 595.125793c-.543457.034546-1.086853.069153-2.261597.309449-1.671753.353149-2.71228.50061-3.752746.648071-.778077.012756-1.556153.025574-3.084229.093811-2.541077.628296-4.332092 1.201111-6.123169 1.773926-6.195862 6.054809-12.391723 12.109619-18.984924 18.604675-.578552.765015-.759705 1.089783-.940918 1.414612 0 0 .073913.006714-.198364.047119-.449891.341858-.627564.643372-.805298.944824 0 0 .073547.018128-.198487.054505-.448364.339233-.624755.64209-.801147.945007.000061 0 .073425.019043-.199402.054321-.448608.338684-.62439.642029-.800171.945374 0 0 .073242.020141-.200439.054138-.448975.33783-.624268.641663-.7995.945557 0 0 .07312.020691-.201416.053589-.449157.337341-.623901.641784-.798584.946228 0 0 .073181.020935-.20227.052673-.449524.336914-.623596.642029-.797608.947143 0 0 .068726.027405-.220276.062378-.55017.324402-.81134.613892-1.072509.903382-4.941346 3.308105-10.051087 5.485901-16.511414 2.066467-1.049316-.63147-1.535766-.953735-2.022278-1.276062-.029175-.257507-.144775-.467468-.655578-.987-.668702-.859741-1.028687-1.362243-1.388733-1.864685-.143433-.514343-.286865-1.028686-.691162-2.184631-.301209-8.500976-.341492-16.360229-.585389-24.611084-1.146118-.620544-2.088073-1.046265-3.03128-1.049072-14.159576-.04303-28.319428-.050354-42.478851.009826-1.071717.004578-2.140992.582703-3.615296.953797-3.121551.101929-5.839142.144287-8.556762.186645-.169922-.036743-.339844-.073547-.944886-.41864-1.987579-.432617-3.540069-.557007-5.09256-.681335 0-.000061-.493896-.031677-.930664-.376099-2.641632-.952759-4.846527-1.560974-7.051391-2.16925-24.312714-7.923401-43.315674-22.552735-55.132477-45.392212-25.796509-49.859162-.936615-114.419464 58.129028-130.055268 1.764283-.46698 3.561646-.808899 6.086274-1.427093 2.124603-.311951 3.50653-.406036 5.200683-.231049 4.927979.364441 9.545319.551697 14.157959.470642.830902-.014587 1.642365-1.133636 2.462799-1.742767 3.712738-.070068 7.425446-.140137 11.90155-.223846 1.164978-.0607 1.566651-.107727 2.014435-.05896.046143.095825.139344.287048.229035.430267.354705.052612.61969-.037964.875549-.202118-.009094-.073578-.006958-.221832.441528-.182587 2.853119.097718 5.257752.156128 7.905518.468323 2.022522.087525 3.80191-.078735 5.879242-.319824.496918-.123505.695892-.17215 1.127899-.15863.233032.062164.687317.224304.781128.610504 1.948975.748962 3.799011 1.397674 5.660126 1.430999 22.730987.406891 45.465484.637452 68.194061 1.142853 4.076843.090668 8.130554 1.219452 12.407104 1.864472.212159-.004486.629212.074615.807618.335449.782287.395966 1.386108.531097 2.200561.665832.210632-.000366.623902.080964.791992.336548.751587.389344 1.335205.523072 1.880799.665772-.037964.008911-.036866-.069092.076904.243286 1.346069.50943 2.57843.706543 4.139709.958618 2.403626.654022 4.478272 1.253052 6.640137 2.189667 3.025391 2.387787 5.963623 4.437988 9.09961 6.774566 11.249389 8.181794 19.570251 18.502198 26.680419 30.239594.186829.409332.269349.569427.45636 1.061249 2.392701 5.803589 4.680909 11.275451 6.969178 16.747314 4.946289 19.815827 4.799255 39.470215-2.689209 58.641785-10.63794 27.234741-30.364136 44.996643-58.558472 54.630615-1.58667.687805-2.504517 1.093018-3.422302 1.49823 0 0-.080933-.201111-.547486-.167908-.930114.135437-1.393676.237732-1.857238.340027-.551453.058838-1.102967.117737-2.242432.40741-1.308045.356689-2.028198.482605-2.748291.608581m-116.558838-129.140472c-7.329498.005707-14.660614-.081848-21.987976.046265-6.017059.105163-10.664734 4.196472-11.497772 9.806549-.865723 5.83023 2.116363 11.011474 7.786041 12.952453 2.154999.737793 4.541107 1.118714 6.822601 1.121857 47.47522.065491 94.950592.053497 142.425873.054535.999207.00003 2.009094.06366 2.995911-.054443 9.677856-1.158204 14.636963-10.318756 9.801819-18.175049-2.715638-4.412445-6.859803-5.802613-11.910767-5.793457-41.145142.074737-82.290466.041412-124.43573.04129m44 71.970612c12.650208-.001038 25.30127.08435 37.950378-.034363 8.112854-.07605 13.635498-5.168091 13.57837-12.153626-.062134-7.598755-4.834595-11.807678-13.415223-11.809936-17.310791-.004456-34.621643-.001648-51.932464.000183-17.144379.00177-34.288941-.03479-51.433106.028137-7.46054.027405-12.227813 4.558716-12.294403 11.424011-.074493 7.679261 5.24234 12.499207 14.127625 12.525513 20.806122.061646 41.612518.019592 63.418823.020081z" fill="#69bc8a"/><path d="m431.048553 642.186707c1.343842.551269 2.654541 1.469726 4.036866 1.594482 9.091064.820557 18.289428.884399 27.280273 2.294922 19.957581 3.131042 35.967987 12.364746 45.19931 32.114197 1.099396 3.160705 2.273072 5.652954 2.552216 8.241638 1.454987 13.492126 2.682465 27.008789 3.989105 40.516907-.025085 1.089294-.050171 2.178649-.053589 4.073486-.02948 1.875366-.080627 2.945251-.420776 4.311035-.392273 12.509033-.507507 24.722107-.560181 36.935486-.002441.563721.555603 1.129761.919617 2.112732.015747 1.824829-.035522 3.231567-.475891 4.72876-.761108 2.945678-1.475586 5.805542-1.436524 8.655151.092408 6.735962.543152 13.46698.904725 20.542847.001281.800781-.053162 1.258667-.48993 1.807861-.741394 4.719971-1.100555 9.348633-1.458313 14.21344.001374.236145-.099304.697571-.384979.912475-1.721252 5.427674-3.156799 10.640503-4.592346 15.853272 0 0-.013672-.07898-.1633-.021912-.245117.139222-.434173.272034-.421447.295472.111358.205505.258667.391601.395385.583374-5.778961 12.959411-15.568817 21.844177-28.817566 27.602111-5.298583 1.011048-9.960296 2.831421-14.756164 3.311646-13.414856 1.34314-26.888855 2.087463-40.32785 3.208191-1.354676.112976-2.629883 1.179504-4.281525 1.881103-.800385.041504-1.261231.005432-2.017944-.319885-.942841-.406921-1.589722-.627502-2.236695-.627808-39.557525-.017395-79.115051-.025146-118.672546.020386-1.237671.001465-2.474701.569763-3.964478.947327-.422943.114136-.593475.154663-.763977.195129-.771209-.055969-1.54245-.111938-3.157531-.169067-5.644654-.090393-10.445435-.179688-15.246247-.268982-7.860443-.913757-15.718872-1.845093-23.581726-2.737549-16.2724-1.847168-30.39267-7.962768-41.588318-21.124573-.762436-.839965-1.129074-1.250671-1.495697-1.661377-.39238-.645568-.784775-1.291076-1.532303-2.377685-.707016-.917664-1.058914-1.394226-1.410812-1.87085 0 0-.023041.036255-.08783-.256103-.331314-.591248-.597854-.890259-.864379-1.18927-.112854-.432373-.225708-.864685-.635102-1.727845-.650528-.916198-1.004547-1.401733-1.358551-1.887207 0 0-.01561.080872-.013916-.294433-.994507-2.539795-1.990692-4.704163-2.986877-6.868591 0 0 .019027-.38147-.0206-.905945-.2005-1.607788-.361358-2.690979-.408325-4.26648-.467407-6.068176-1.350509-11.632324-1.56987-17.222473-.527588-13.444092-.782257-26.899719-1.067352-40.352356-.114716-5.412842.121323-10.836243-.109604-16.241699-.06839-1.601135-1.184967-3.157471-1.885803-5.070313-.020569-.787902.023437-1.239868.458374-1.782348.766098-1.938721 1.39151-3.77533 1.477142-5.636841.745224-16.198242 1.404205-32.400574 2.061005-48.602844.115875-2.858338.102493-5.722046.148803-8.583252 4.543595-19.989441 17.93303-31.643189 36.509263-37.991577 10.184005-3.480347 20.606491-5.878479 31.662368-4.25293 3.279297.482117 6.874024-1.181213 11.302918-3.250061-5.562561-5.176636-11.300324-10.180237-16.634033-15.582825-4.528702-4.587097-6.206849-10.185119-3.62967-16.473816 2.414216-5.891113 6.852356-9.726928 13.187409-9.828003 3.768097-.06018 8.46698.710388 11.171295 2.982971 6.417328 5.393006 11.895752 11.903321 18.136841 18.385682.611389.686767.897369.846496 1.241119.902771 0 0-.072967.018798.052094.240173.462127.393982.799194.566589 1.136291.739136.520325.443481 1.04068.886902 1.758057 1.853027.52066.736511.844238.950501 1.167816 1.16449 4.66098 4.595032 9.321991 9.190124 14.39859 14.185242.690003.636901.964417.873657 1.277466 1.290649.038605.180298.126129.539917.40625.850586.757324.43866 1.234406.678161 1.711822.678772 21.490632.028076 42.981354.055359 64.471802-.010132 1.160492-.003479 2.318573-.804321 3.622711-1.453369.470826-.62561.796784-1.03186 1.122742-1.43811.855042-.763733 1.710083-1.527527 2.934876-2.695496.558288-.717285.746765-1.030335.935241-1.343323.000031 0-.084381.020447.166138.023438.250549.00299.719971-.077271.864838.090942.386627-.268921.628387-.705994.914581-1.378479.044434-.235413.09668-.71167.09668-.71167s-.082245-.033142.170227-.067261c.4328-.338134.613189-.642212.793579-.946289-.000031 0-.073334-.018676.201782-.059814.520752-.331543.766388-.621948 1.011993-.912293 8.28064-8.267639 16.561249-16.535217 25.40152-25.03955.792176-.529541 1.024689-.822327 1.257202-1.115113 0 0 .006256.073548.230194-.055969.394104-.467651.56427-.805725.734406-1.14386 4.188141-4.514099 9.483612-5.357971 15.762451-4.143738 2.130768 1.100403 3.760101 1.740357 5.389465 2.380249 0 0-.069641.031128.027955.242066.390106.400696.682678.590454.975219.780273 0 0-.072845.014954.057007.238526.472077.393371.81427.563171 1.156464.732971.294769.048828.509979.206299.679809 1.086914 2.518769 6.436035 2.280091 12.258179.037476 18.080688-.431427.568726-.862885 1.137452-1.82724 1.925721-.738678.556457-.944397.893371-1.150147 1.230285-3.04898 3.162537-6.097992 6.325074-9.715881 9.716309-.816254.52185-1.063568.814941-1.310882 1.108093 0 0-.000489-.073913-.209076.033875-.399659.395691-.59079.683593-.781922.971435 0 0-.012146-.073547-.219879.031433-.398376.392884-.58902.680725-.779694.968628.000031 0 .04773-.065368-.274627-.027221-.784516.731994-1.246704 1.425903-1.708863 2.119812m45.028046 72.150512c-.068054-.746032-.136108-1.492004-.137359-3.094299-1.123963-19.851074-8.088135-28.631287-27.379975-31.145691-15.414276-2.009094-31.082489-2.069763-47.558533-3.061462-33.971008.024841-67.942016.049743-102.851623-.01294-13.512238 1.020996-27.101929 1.450073-40.518036 3.205567-18.773926 2.456481-25.799454 9.826782-27.619492 27.666442-.276245 4.347962-.55249 8.695862-.957397 13.980774.017166 15.732972.034317 31.465943-.006882 47.96698.019654 1.026551.039322 2.05304-.030334 3.865723.027405.789429.054809 1.578857.022812 3.278015.020233 3.9776.040466 7.955139-.02768 12.862976.056916 3.736939.113831 7.473816.096848 12.061768.329742 3.003906.659485 6.007812.942535 9.8255.346863 1.950806.6427 3.912293 1.048889 5.850708 2.598206 12.398621 10.803543 21.043824 22.996338 22.22699 16.277222 1.579529 32.657807 2.093567 49.842774 3.131958 1.708496.09082 3.416961.181641 5.31842 1.022705 1.032318.340149 2.064087.975525 3.097015.977417 30.35727.054077 60.714783.065003 91.071869-.028625 1.171112-.003601 2.338776-1.108582 4.32779-1.852967 1.381836-.06427 2.763672-.12854 5.075256-.115112 6.466156-.320007 12.958191-.382202 19.391785-1.0271 7.576843-.759521 15.191742-1.606384 22.626678-3.18518 7.638214-1.621887 14.311218-5.687317 16.702271-13.493225 2.208435-7.209595 2.947601-14.869385 4.43872-22.997559.0896-.440552.1792-.881103 1.010529-1.519348.331055-1.042481.949066-2.08429.951202-3.127442.053589-26.328369.065277-52.656921-.031646-78.985046-.004364-1.18335-1.096344-2.362732-1.842774-4.277527z" fill="#4bacb6"/><path d="m651.581604 479.132385c-2.745605-5.437195-5.033813-10.909057-6.963562-16.709045 49.072144-.360199 97.785767-.358368 146.498962-.506958 2.979493-.009064 5.955262-1.208893 8.900879-1.875183-.031921-.020508.014405.040222.374451.075989 1.069214-.085267 1.778381-.20633 2.819824-.405152 8.120789-3.619781 12.474732-10.090546 15.729126-17.874206.264527-1.014038.216004-1.919831.091309-2.835633-.076172-.01004-.227234-.037872-.160034-.3703.153991-.776062.240722-1.219696.707824-1.768127.726807-1.805359 1.373841-3.505585 1.375855-5.206635.055603-46.457031.055237-92.914093.00769-139.371155-.001831-1.740051-.568908-3.479522-.913696-5.690338-.041077-6.396271-.041077-12.321442-.041077-18.686584-19.861572 0-38.96875 0-58.372192-.280945-14.486633-.382538-28.677002-.494415-42.867676-.548554-.567505-.002166-1.137146.54361-2.17688.87497-9.526123.100433-18.581238.159973-28.06665.176208-2.449768-.025512-4.469116-.007721-6.944763-.040588-3.522827-.026032-6.589478-.001434-10.116394-.011078-55.965088-.034241-111.469727-.034241-167.348175-.034241 0 23.703034 0 46.788727-.036591 70.233368-.011719.838684.013153 1.318421.004517 2.224182-.009217 2.421875.015136 4.417755.002197 6.773499-.012451.841064.01239 1.322235.002258 2.218872-.011841 2.084595.011231 3.753723-.009918 5.894775-.020599 19.797486.002991 39.123078.026611 58.448639-.198944.048645-.397918.09729-1.308868.185059-2.377472.059997-4.042908.080932-5.708374.101837-2.404602-.058472-4.809235-.116882-7.655182-.672241-.438446-62.395844-.428009-124.2948-.471802-186.193695-.001221-1.734726-.582825-3.46904-.89386-5.203537.711274-12.594254 13.051514-26.410202 26.859284-30.045929 1.434326-.37767 2.897766-.644547 5.039123-.662461 1.673523.41803 2.65564.638489 3.637757.638672 76.982177.014344 153.964416.018113 230.946533-.038147 1.547607-.001129 3.094726-.718002 5.095398-1.139648 14.790344-.265793 29.127319-.492905 43.464233-.720001 8.467652 2.585067 16.688843 5.564056 22.901123 12.387588 6.292359 6.911423 9.973267 14.870148 9.984436 24.28479.043335 36.453507.01593 72.90709.025086 110.293503-.027588 35.304382-.065491 69.675873-.103394 104.047394-4.122925 17.684112-14.1875 30.234131-31.757507 35.888336-4.185791 1.347015-8.790955 1.926453-13.206421 1.941925-46.304321.162537-92.609314.138489-139.37146.200775m-72.615295-243.057327c.352417-1.5979.941345-3.18512 1.014099-4.795685.248962-5.506286-3.126953-9.870087-7.759766-10.287857-7.149963-.64473-11.840698 2.479797-12.561279 8.788483-.487732 4.270798 1.290588 7.841842 5.118896 9.940994 4.826905 2.646729 9.468628 1.528214 14.18805-3.645935m-43.53534-11.970276c-5.313293-4.52829-12.702392-4.335235-16.355285.427322-3.532837 4.606019-2.486817 10.718094 2.482544 14.506165 3.641235 2.775635 8.430114 2.702805 12.01184-.134491 3.658997-2.898514 6.354615-8.572937 1.860901-14.798996m76.277649 16.885971c6.233643-.332718 10.968262-4.447082 11.194458-9.727875.191651-4.473831-3.644775-9.479782-7.846863-10.239059-6.267822-1.132568-10.555175 1.267776-12.547607 7.024933-1.886108 5.449966 1.392822 10.491699 9.200012 12.942001z" fill="#d3bba0"/><path d="m802.806519 189.779755c-14.033692.535415-28.370667.762527-43.6521.996612-18.55365.032746-36.162659.081894-53.771729.080033-61.447815-.006516-122.895629-.030671-184.343444-.048142 1.836486-.601944 3.672119-1.726898 5.509582-1.729919 56.738281-.093079 113.476685-.07605 170.215088-.076661 33.444031-.000366 66.888062-.00914 100.332092.01738 1.802552.001419 3.60492.294861 5.710511.760697z" fill="#e3eaef"/><path d="m487.999695 222.310379c.378753 1.479706.960357 3.21402.961578 4.948746.043793 61.898895.033356 123.797851.023285 186.154449-.007141.457642-.009277.605896-.243347.651001-.2341.045075-.722076.087372-.722076.087372s-.093201-.191223-.173615-.682434c-.290558-1.96286-.691376-3.435608-.682922-4.906006.204284-35.561462.528564-71.122375.667053-106.684051.102325-26.269715-.027222-52.540314-.053467-78.810517.051972-.167938.103882-.335861.223511-.75856z" fill="#cfb18f"/><path d="m487.402954 223.163605c.399475 26.175537.529022 52.446136.426697 78.715851-.138489 35.561676-.462769 71.122589-.667053 106.684051-.008454 1.470398.392364 2.943146.636779 4.810181-.36737.442444-.769043.489471-1.47348.502655-.310241-62.025604-.325134-124.017365-.282135-186.00911.001068-1.536545.642945-3.072647 1.359192-4.703628z" fill="#e3eaef"/><path d="m520.800842 190.889526c61.686219-.063797 123.134033-.039642 184.581848-.033126 17.60907.001861 35.218079-.047287 53.318299-.041352-1.056153.414673-2.603272 1.131546-4.150879 1.132675-76.982117.05626-153.964356.052491-230.946533.038147-.982117-.000183-1.964234-.220642-3.239319-.62062-.129273-.319687.034424-.357056.436584-.475724z" fill="#cfb18f"/><path d="m415.963623 877.924683c.460815.036132.921661.072204 1.963013.084533.580505-.023803 1.059509.096192 1.059509.096192-1.31543.629883-2.629517 1.807129-3.946442 1.810302-40.408416.096863-80.817077.087708-121.225647.033692-1.19638-.001587-2.391906-.661621-3.685943-1.396729.072418-.422607.24295-.463134 1.047485-.520996 42.018707-.04718 83.403351-.077087 124.788025-.106994z" fill="#f3e7e2"/><path d="m513.920898 735.037476c.051209-1.069886.102356-2.139771.192261-3.610108.652283 1.091431 1.785645 2.578674 1.798889 4.075867.131714 14.947876.435913 29.908264-.017334 44.843628-.502685 16.566589-.273864 33.242126-3.958374 49.549072-.700378 3.099732-2.455749 5.96106-3.954651 8.668152.83133-4.688416 1.892884-9.112671 2.954468-13.536865 0 0 .100678-.461426.365875-1.010681.701447-5.03003 1.137726-9.510865 1.574006-13.991639.054504-.457885.108947-.915771.16278-2.16333.288269-10.140381.577027-19.490967.865845-28.841614.051209-1.406799.102478-2.813537.134766-5.10205-.052185-13.547974-.085388-26.214173-.118531-38.880432z" fill="#f3e7e2"/><path d="m457.368469 596.430847c2.428192-.302429 5.145783-.344787 8.729553-.386169 16.866333.139465 32.866547.277954 48.866761.416443.040344 7.859314.080627 15.718567.17865 24.041687-.676026-2.270752-1.75-4.96637-2.067383-7.748352-.53772-4.713868 1.098877-10.995179-1.373963-13.767945-2.131378-2.389892-8.713623-.902344-13.3302-.961975-6.647278-.085937-13.302063.150574-19.943268-.066833-6.929992-.226746-13.847656-.828797-21.06015-1.526856z" fill="#f3e7e2"/><path d="m191.073746 752.013672c.636276 1.576904 1.752853 3.13324 1.821243 4.734375.230927 5.405456-.005112 10.828857.109604 16.241699.285095 13.452637.539764 26.908264 1.067352 40.352356.219361 5.590149 1.102463 11.154297 1.413498 16.911438-.66333-.338257-1.056427-.857727-1.449524-1.377136 0 0-.02095-.452576.038819-1.042908-.305573-1.715271-.670929-2.840149-1.036271-3.965088 0 0-.051269-.468506-.061004-1.107055-.30423-2.694581-.598725-4.750672-.893234-6.806763-.033432-.448792-.06688-.897583-.110047-2.12854-.301651-4.479553-.593582-8.177002-.885498-11.874451-.034241-1.392944-.068497-2.785828-.116302-5.055359.024765-15.545227.063064-30.213928.101364-44.882568z" fill="#2fa3af"/><path d="m388.74231 640.041138c.159393.430237-.166565.836487-1.103425 1.46997-23.276733.229676-45.942535.232117-68.770355.082276-.421447-.328613-.705719-.389893-1.014831-.336243-.274414-.236755-.548828-.473511-.955506-.950317 23.69812-.256592 47.528473-.273133 71.844117-.265686z" fill="#f3e7e2"/><path d="m419.324982 878.033142c-.338837.072266-.817841-.047729-1.058808-.101562 1.071137-.677796 2.346344-1.744324 3.70102-1.8573 13.438995-1.120728 26.912994-1.865051 40.32785-3.208191 4.795868-.480225 9.457581-2.300598 14.410706-3.254273-2.831421 1.377808-5.893067 2.50055-9.59842 3.851441-1.12326.353821-1.602783.479492-2.082336.605224-.536377.030457-1.072785.060975-2.273621.300782-4.539032.993591-8.413604 1.777954-12.288177 2.562378-.062988-.393067-.293061-.572449-1.373688-.543335-4.477631.261596-8.271759.528503-12.358917.754882-.631287.131897-.969574.304261-1.725586.352906-4.934509.114197-9.451294.352112-13.968079.590088-.457702-.041748-.915405-.083557-1.711944-.05304z" fill="#2fa3af"/><path d="m195.044586 687.376831c.063614 2.556824.076996 5.420532-.038879 8.27887-.6568 16.20227-1.315781 32.404602-2.061005 48.602844-.085632 1.861511-.711044 3.69812-1.522247 5.190185-.473068-3.047119-.510056-5.738098-.547028-8.429138.063141-2.386718.126313-4.773498.183548-8.060302.602112-12.904419 1.210129-24.908753 1.818161-36.913086.041733-.162354.083481-.324707.397507-1.006165.389801-2.013611.507324-3.50824.624847-5.002808.345063-.785339.690125-1.570617 1.145096-2.6604z" fill="#2fa3af"/><path d="m836.224609 440.799072c-.269714-34.069244-.231811-68.440735-.172485-103.273315.3302.774902.906677 2.010467.908569 3.246918.049073 32.27066.042847 64.541442.018982 96.812194-.000732.970734-.291748 1.941285-.755066 3.214203z" fill="#e3eaef"/><path d="m190.489655 741.116821c.422744 2.593811.459732 5.28479.541839 8.422486.001129.898559-.042877 1.350525-.022308 2.138427.02626 15.004578-.012039 29.673279-.098862 44.804932-.324509-.11499-.830124-.687988-.843079-1.27179-.380554-17.147338-.728195-34.295471-1.00299-51.444763-.013535-.844909.676956-1.70105 1.4254-2.649292z" fill="#f3e7e2"/><path d="m514.383301 726.654236c-1.583618-13.213501-2.811096-26.730164-4.266083-40.22229-.279144-2.588684-1.45282-5.080933-2.327911-7.994812.333923-.171326 1.053863-.076599 1.190033.256592 3.235138 7.918029 6.452972 15.849182 5.370575 24.712219-.139283 1.140076-.531067 2.450928-.146119 3.420837 2.573121 6.483521.558533 13.022888.179505 19.827454z" fill="#f3e7e2"/><path d="m192.608124 696.308044c-.33902 11.742493-.947037 23.746827-1.612992 36.207703-.369979-5.043457-1.126648-10.563538-.880127-16.038391.299653-6.655701 1.444733-13.273377 2.493119-20.169312z" fill="#f3e7e2"/><path d="m473.536682 414.111023c-.39331.645813-1.204773 1.764862-2.035675 1.779449-4.61264.081055-9.22998-.106201-13.744293-.536285 3.470154-.692657 6.838806-1.050659 10.207489-1.40863 1.715118.042938 3.430206.085876 5.572479.165466z" fill="#50b27b"/><path d="m449.301727 623.888367c1.967652-5.602539 2.20633-11.424683-.266815-17.659607 4.350922 5.414062 4.542023 11.364563.266815 17.659607z" fill="#2fa3af"/><path d="m510.650452 825.242126c-.775879 4.20929-1.837433 8.633545-3.03714 13.447815-.471649.965088-.805176 1.540039-1.346955 2.260254 1.227326-5.067566 2.662873-10.280395 4.384095-15.708069z" fill="#2fa3af"/><path d="m467.674744 413.659607c-3.079224.643921-6.447876 1.001923-10.230225 1.425537-1.795624.159699-3.177551.253784-4.974579.418213 4.3078-3.361176 9.627838-2.63205 15.204804-1.84375z" fill="#e3eaef"/><g fill="#f3e7e2"><path d="m421.335693 878.369385c4.218018-.521179 8.734803-.759094 14.058594-.751892 1.0737.291382 1.340332.337646 1.606323.383178-.00061-.000671-.001831-.000671-.001831-.000671-5.121429.217468-10.242859.434998-15.663086.369385z"/><path d="m271.956909 878.046997c4.470154-.22522 9.270935-.135925 14.531372.007446-4.427124.138489-9.313934.222779-14.531372-.007446z"/><path d="m450.947571 876.948975c3.390198-.801758 7.26477-1.586121 11.568359-2.445069-2.746521 3.775818-7.137329 2.111511-11.568359 2.445069z"/><path d="m190.798523 802.193115c.582077 3.455933.874008 7.153382 1.113922 11.301087-.502685-3.386353-.953384-7.222901-1.113922-11.301087z"/><path d="m437.023621 877.183716c3.794128-.266907 7.588256-.533814 11.869873-.65564-3.333283.588867-7.154084 1.032715-11.434784 1.474243-.459931-.002319-.45871-.002319-.454651-.206115.004059-.203797.019562-.612488.019562-.612488z"/><path d="m196.048721 836.140686c1.018204 1.760742 2.014389 3.92511 3.048477 6.453552-.998245-1.773926-2.034378-3.911865-3.048477-6.453552z"/><path d="m194.023407 829.273682c.405609.122131.798706.641601 1.348175 1.472046.3172 1.394348.478058 2.477539.622192 3.902832-.672119-1.431153-1.327514-3.204346-1.970367-5.374878z"/><path d="m564.249146 597.96991c1.379028-.591675 3.170043-1.16449 5.331176-1.704346-1.393005.596436-3.156128 1.15979-5.331176 1.704346z"/><path d="m443.193298 592.897827c2.071106.235901 4.276001.844116 6.671906 1.7677-2.052033-.254882-4.295075-.825073-6.671906-1.7677z"/><path d="m191.820892 816.166992c.557846 1.843689.852341 3.89978 1.093582 6.367371-.487808-1.777283-.922363-3.966126-1.093582-6.367371z"/></g><path d="m445.908203 602.683105c-1.444733-.376098-3.074066-1.016052-4.771454-1.976928 1.483582.357055 3.035218 1.035095 4.771454 1.976928z" fill="#2fa3af"/><path d="m451.294067 595.343628c1.300019-.148499 2.852509-.024109 4.582154.370117-1.325135.147461-2.827423.025086-4.582154-.370117z" fill="#f3e7e2"/><path d="m193.65976 690.226807c.122207 1.304992.004684 2.799621-.375306 4.561889-.129791-1.27893.002884-2.825683.375306-4.561889z" fill="#f3e7e2"/><path d="m193.023956 824.241394c.379853.751953.745209 1.876831 1.014313 3.368469-.407104-.754028-.717957-1.874756-1.014313-3.368469z" fill="#f3e7e2"/><path d="m431.340698 642.077698c.170014-.5849.632202-1.278809 1.445954-1.982849-.150208.617859-.652008 1.245849-1.445954 1.982849z" fill="#2fa3af"/><path d="m518.075623 626.026611c.492981.012696.979431.334961 1.665954.871277-.424072-.044555-1.048279-.303161-1.665954-.871277z" fill="#f3e7e2"/><path d="m573.274536 596.345215c.810425-.409363 1.850952-.556824 3.28125-.779358-.757202.297058-1.904175.669189-3.28125.779358z" fill="#f3e7e2"/><path d="m579.264709 595.368286c.514222-.368469 1.234375-.494385 2.315064-.687378-.462647.265198-1.28595.597534-2.315064.687378z" fill="#f3e7e2"/><path d="m586.878357 593.946533c.493713-.414062 1.41156-.819275 2.700134-1.33728-.511535.373413-1.393799.859741-2.700134 1.33728z" fill="#f3e7e2"/><path d="m584.218384 594.33374c.294739-.326233.758301-.428528 1.581238-.547973-.231263.245849-.821839.50885-1.581238.547973z" fill="#f3e7e2"/><path d="m202.047256 848.28595c.322037.151123.673935.627685 1.144288 1.382629-.292496-.166809-.703461-.611999-1.144288-1.382629z" fill="#f3e7e2"/><path d="m205.021942 852.502686c.305191.117004.671829.52771 1.164673 1.189331-.2836-.131165-.69342-.513367-1.164673-1.189331z" fill="#f3e7e2"/><path d="m465.202423 874.301086c.302124-.358337.781647-.484008 1.637634-.621154-.235778.277038-.847992.565429-1.637634.621154z" fill="#f3e7e2"/><path d="m516.059692 623.209961c.338135.157776.69812.660278 1.199585 1.444702-.298278-.178772-.737915-.639343-1.199585-1.444702z" fill="#f3e7e2"/><path d="m199.081177 843.237671c.34436.147827.698379.633362 1.168838 1.410767-.308761-.163086-.733978-.618104-1.168838-1.410767z" fill="#f3e7e2"/><path d="m298.020569 621.710388c-.262299.197998-.548279.038269-.889099-.447204.194122-.084046.500915.054443.889099.447204z" fill="#2fa3af"/><path d="m505.963043 841.733154c-.230987.027405-.378296-.158691-.489654-.364196-.012726-.023438.17633-.15625.459564-.283143.187714-.044677.124359.428223.03009.647339z" fill="#2fa3af"/><path d="m538.150146 623.860962c-.067565-.205261.106507-.510376.545777-.883911.075439.215759-.11438.499878-.545777.883911z" fill="#f3e7e2"/><path d="m201.127777 846.821655c.203934-.007568.470474.291443.823181.880799-.19609.002197-.478332-.286011-.823181-.880799z" fill="#f3e7e2"/><path d="m541.150391 620.861694c-.066224-.203552.109558-.506897.548339-.882202.073243.212891-.116516.49762-.548339.882202z" fill="#f3e7e2"/><path d="m542.150146 619.861877c-.065795-.203002.110596-.505859.549439-.881774.072571.211975-.11731.496887-.549439.881774z" fill="#f3e7e2"/><path d="m543.150024 618.862183c-.064697-.201355.112976-.502869.551697-.880127.070923.209472-.119201.49469-.551697.880127z" fill="#f3e7e2"/><path d="m544.170898 617.837646c-.07843-.192138.102723-.516906.521729-1.002441.071106.182739-.09552.526245-.521729 1.002441z" fill="#f3e7e2"/><path d="m448.15509 604.697693c-.187805.073242-.529998-.096558-1.00299-.527039.195709-.079162.522155.102417 1.00299.527039z" fill="#2fa3af"/><path d="m423.703918 605.990356c.039887.212647-.192626.505433-.702148.878174-.041443-.212707.194183-.505371.702148-.878174z" fill="#2fa3af"/><path d="m395.85849 633.137695c.064941.203369-.115448.507447-.558716.888672-.070801-.211181.121277-.499634.558716-.888672z" fill="#f3e7e2"/><path d="m394.892334 634.138794c.247681-.088257.195435.388-.04834.680359-.243744.292358-.650604.371948-.682281.341308-.031678-.030639-.097626-.089172-.097657-.089172.193512-.281433.387055-.562805.828278-.932495z" fill="#f3e7e2"/><path d="m393.983887 635.972473s-.469422.080261-.704834.117981c-.059357-.25531.116668-.548279.538879-.930176.246155-.088989.312103-.030456.302094.198365-.01001.22882-.136139.61383-.136139.61383z" fill="#f3e7e2"/><path d="m392.841583 636.150818c.067719.188476-.120758.501526-.548492.961243-.062073-.181092.115112-.508912.548492-.961243z" fill="#f3e7e2"/><path d="m435.303955 638.013306c-.034027-.217713.213287-.510804.748016-.878785.036042.217957-.215332.510682-.748016.878785z" fill="#2fa3af"/><path d="m434.299042 639.025269c-.076294-.219056.114837-.506958.550689-.895142.068757.208557-.107269.517456-.550689.895142z" fill="#2fa3af"/><path d="m433.300507 640.026978c-.07779-.220765.112854-.508606.548187-.896546.069855.209717-.10495.519592-.548187.896546z" fill="#2fa3af"/><path d="m447.017365 603.708618c-.213898.070801-.50647-.118957-.896149-.557861.207763-.066956.512634.115112.896149.557861z" fill="#2fa3af"/><path d="m540.15033 621.86145c-.066651-.204162.108642-.507995.547546-.882446.073853.213867-.115906.498291-.547546.882446z" fill="#f3e7e2"/><path d="m446.29541 627.110901c-.040283-.183472.165436-.520386.655457-.963928.05307.199096-.178192.50476-.655457.963928z" fill="#2fa3af"/><path d="m424.694763 604.856812c.076019.191711-.094147.529785-.524994.994262-.080841-.198364.098969-.523071.524994-.994262z" fill="#2fa3af"/><path d="m302.073792 625.713379c-.181092.034119-.50467-.179871-.930604-.674255.194489-.044922.491272.190612.930604.674255z" fill="#2fa3af"/><path d="m536.908447 624.858521c-.031494-.221436.229676-.510926.776123-.872193.029053.220154-.227234.512085-.776123.872193z" fill="#f3e7e2"/><path d="m397.035461 632.141113c.03653.214112-.209106.504517-.731506.873902-.034729-.213257.207306-.505432.731506-.873902z" fill="#f3e7e2"/><path d="m539.150146 622.861206c-.067016-.204651.107728-.509094.546753-.883057.074524.214722-.115234.499024-.546753.883057z" fill="#f3e7e2"/><path d="m299.137451 622.703247c-.184143.068176-.52121-.104431-.987549-.535828.192047-.074157.513306.110474.987549.535828z" fill="#2fa3af"/><path d="m818.628113 441.946045c-2.941223 7.675445-7.295166 14.14621-15.608582 17.549316-1.345703.102784-2.166504.344422-2.987243.58606 0 0-.046326-.06073-.451661-.059265-9.178772.326874-17.951355.907654-26.725708.934479-43.086547.131713-86.173645.116149-129.260498.152618-7.005859-11.488159-15.326721-21.808563-26.142761-29.968201 6.646423.846802 12.880371.445526 18.586548-2.948333 27.030334-16.07663 54.027832-32.208436 81.03186-48.329377.712403-.425323 1.373352-.939422 2.044251-1.431274 12.73114-9.333252 12.154114-21.811585-1.504944-29.885346-28.36377-16.765472-56.766296-33.465515-85.180481-50.145477-10.494629-6.160614-19.378357-4.223938-26.862427 5.679443-1.099975 2.665955-2.458008 5.257874-2.469116 7.855561-.143555 33.398407-.099426 66.797638-.079895 100.196655.000916 1.482117-.111938 3.093536.403992 4.420929 1.331665 3.425873-.266419 4.566589-3.594971 4.796692-1.132751-.21936-1.967102-.343109-2.801392-.466858 0 0-.001098.078003-.123474-.200897-.71112-.403076-1.299804-.527222-1.888549-.651367 0 0-.41327-.08133-.798951-.353455-.991821-.399475-1.597839-.526825-2.203918-.654175 0 0-.417053-.079101-.854065-.374298-8.071472-1.699829-15.678772-4.10852-23.345642-4.31607-20.914734-.566315-41.854675-.203522-62.784607-.208771 0 0-.454285-.16214-.687317-.224304-.256683-19.387726-.280273-38.713318-.007812-58.755372.128417-2.499572-.039277-4.282623-.207001-6.065704-.024811-.48114-.049652-.962311.219421-2.061066.120819-2.725646-.052246-4.83374-.225281-6.941803-.024902-.479766-.049774-.959503.236542-2.095916.422669-2.470673.628662-4.284577.630951-6.098725.024139-18.966888.175995-37.936126-.09552-56.89917-.068756-4.801757 1.271149-6.104187 6.080414-6.088287 51.742493.171204 103.485901.115601 155.228943.068359 1.908874-.001739 3.817138-.553741 5.725708-.849304 3.066589-.024627 6.13324-.049225 9.734131.336853 2.976013 2.028138 5.324035 2.72226 7.297058-.276184 9.055053-.059509 18.110168-.119049 28.097473-.188598 15.581421-.032166 30.230469-.054261 44.879578-.076355h58.075988c0 6.365142 0 12.290313.009156 19.026916-.264405 2.14386-.538025 3.476257-1.129395 5.126709-.507141 1.613678-.861206 2.90921-.862061 4.205017-.030212 46.13739-.034606 92.274842.004822 138.412232.00116 1.428375.504456 2.856262.773682 4.284393 0 0 .151062.027832.166565.403961-.104309 1.110016-.22406 1.843903-.343811 2.577759z" fill="#fef2e3"/><path d="m605.934387 304.009338c7.11615-9.832031 15.999878-11.768707 26.494507-5.608093 28.414185 16.679962 56.816711 33.380005 85.180481 50.145477 13.659058 8.073761 14.236084 20.552094 1.504944 29.885346-.670899.491852-1.331848 1.005951-2.044251 1.431274-27.004028 16.120941-54.001526 32.252747-81.03186 48.329377-5.706177 3.393859-11.940125 3.795135-18.784302 2.661926-3.371582-2.072327-6.309814-4.122528-9.28186-6.85965-.697205-1.778931-1.360413-2.870972-1.760986-4.142578-.168763-1.055878-.600159-1.932129-1.125367-3.151917-.055725-.813934-.017639-1.284362.300232-2.045898.087525-4.06366-.104736-7.836212-.372863-12.067932-.022889-4.184906.030029-7.910645.36853-11.933594.398926-8.026977.600158-15.756988.578064-23.486389-.007752-2.707764-.56482-5.41391-.947937-8.551086-.023255-2.174012.030334-3.917725.324219-5.83548.08142-1.026764-.077393-1.879517-.313721-3.176483-.027466-2.845826.022522-5.247437.313843-7.823059.080444-1.027741-.080384-1.88147-.317627-3.140412-.02472-1.499695.026977-2.594177.329101-3.892792.083985-1.368804-.082397-2.533508-.325439-4.159729-.024903-4.520904.026977-8.580261.354736-12.920898-.001709-3.117676-.279358-5.954071-.513428-9.152161.386048-1.742858.728516-3.124054 1.070984-4.505249z" fill="#ff7069"/><path d="m463 465.985168c41.645264.000275 82.790588.0336 123.93573-.041137 5.050964-.009156 9.195129 1.381012 11.910767 5.793457 4.835144 7.856293-.123963 17.016845-9.801819 18.175049-.986817.118103-1.996704.054473-2.995911.054443-47.475281-.001038-94.950653.010956-142.425873-.054535-2.281494-.003143-4.667602-.384064-6.822601-1.121857-5.669678-1.940979-8.651764-7.122223-7.786041-12.952453.833038-5.610077 5.480713-9.701386 11.497772-9.806549 7.327362-.128113 14.658478-.040558 22.487976-.046418z" fill="#3b9269"/><path d="m506 537.955688c-21.306305-.000244-42.112701.04181-62.918823-.019836-8.885285-.026306-14.202118-4.846252-14.127625-12.525513.06659-6.865295 4.833863-11.396606 12.294403-11.424011 17.144165-.062927 34.288727-.026367 51.433106-.028137 17.310821-.001831 34.621673-.004639 51.932464-.000183 8.580628.002258 13.353089 4.211181 13.415223 11.809936.057128 6.985535-5.465516 12.077576-13.57837 12.153626-12.649108.118713-25.30017.033325-38.450378.034118z" fill="#3b9269"/><path d="m605.100891 317.948029c-.051819 4.059356-.103699 8.118713-.123413 13.028289.061279 1.891907.090454 2.933564.119629 3.97522-.051697 1.094452-.103394 2.188934-.122253 4.050964.061889 1.495758.090942 2.223938.119934 2.952118-.050049 2.401581-.100037 4.803192-.11615 8.010956.061645 1.533661.089355 2.261139.117065 2.988587-.05365 1.743713-.107239 3.487426-.127807 6.124939.064758 11.219604.096435 21.54541.128112 31.871185-.052917 3.725738-.105835 7.451477-.126281 12.0914.067077 4.577454.101745 8.240753.136413 11.904053-.038086.470398-.076172.940826-.040832 2.081177.343322 1.448303.61322 2.226684.883056 3.005096.663269 1.09201 1.326477 2.184051 1.936402 3.625397-2.12793-.249695-4.202576-.848725-6.823731-1.651734-.676391-.322509-.806274-.44104-.936096-.55957 3.03009-.325684 4.628174-1.4664 3.296509-4.892273-.51593-1.327393-.403076-2.938812-.403992-4.420929-.019531-33.399017-.06366-66.798248.079895-100.196655.011108-2.597687 1.369141-5.189606 2.469116-7.855561.025452 1.309845-.317016 2.691041-1.007751 4.677674-.051453 3.466858.245361 6.328247.542175 9.189667z" fill="#fefdf4"/><path d="m505.11969 414.510834c20.836121-.380951 41.776062-.743744 62.690796-.177429 7.66687.20755 15.27417 2.616241 23.133484 4.320526-3.839539-.349793-7.89325-1.478577-11.970093-1.569245-22.728577-.505401-45.463074-.735962-68.194061-1.142853-1.861115-.033325-3.711151-.682037-5.660126-1.430999z" fill="#50b27b"/><path d="m643.69873 461.358521c42.982544-.285737 86.069642-.270173 129.156189-.401886 8.774353-.026825 17.546936-.607605 26.75763-.913971-2.540283.664825-5.516052 1.864654-8.495545 1.873718-48.713195.14859-97.426818.146759-146.603332.175232-.545593-.163697-.628113-.323792-.814942-.733093z" fill="#fefdf4"/><path d="m514.76123 596.06958c-15.796661.253052-31.796875.114563-48.259307-.084473.608184-.37207 1.677459-.950195 2.749176-.954773 14.159423-.06018 28.319275-.052856 42.478851-.009826.943207.002807 1.885162.428528 3.03128 1.049072z" fill="#50b27b"/><path d="m599.826477 421.350525c.428284.214111.558167.332642.905579.600159-1.014771-.048096-2.247132-.245209-3.593201-.754639.72052-.188629 1.554871-.06488 2.687622.15448z" fill="#50b27b"/><path d="m497.331421 414.378784c1.422302-.274628 3.087738-.295563 5.167236-.280701-1.365326.201966-3.144714.368226-5.167236.280701z" fill="#50b27b"/><path d="m592.188599 419.284607c.427673-.133484 1.033691-.006134 1.81488.393738-.428772.137359-1.032593.002228-1.81488-.393738z" fill="#50b27b"/><path d="m595.181152 420.286987c.420655-.131439 1.009339-.007293 1.758423.386841-.423218.136231-1.006836.002503-1.758423-.386841z" fill="#50b27b"/><path d="m488.108826 414.295166c-.089691-.143219.398285-.185516.641479-.157043-.021789.119079-.286774.209655-.641479.157043z" fill="#50b27b"/><path d="m401.921265 677.102051c15.555511.925415 31.223724.986084 46.638 2.995178 19.29184 2.514404 26.256012 11.294617 27.071228 31.868958-.415741 1.371215-.615936 2.019042-.616333 2.667053-.016601 28.189331-.026703 56.378662.021088 84.567932.002075 1.237854.553619 2.474731.849212 3.712097-1.386291 7.461487-2.125457 15.121277-4.333892 22.330872-2.391053 7.805908-9.064057 11.871338-16.702271 13.493225-7.434936 1.578796-15.049835 2.425659-22.626678 3.18518-6.433594.644898-12.925629.707093-20.152283.713929-1.408966-.420044-2.057434-.619996-2.705963-.620301-34.184754-.016662-68.369507-.025818-102.554199.018921-1.239869.001648-2.479004.550537-3.718476.844422-16.336181-.97168-32.716766-1.485718-48.993988-3.065247-12.192795-1.183166-20.398132-9.828369-22.996338-22.22699-.406189-1.938415-.702026-3.899902-.74974-6.538208-.189835-3.787964-.678818-6.888489-1.167801-9.989013-.0569-3.736939-.113815-7.473816.150787-11.965088.136185-4.842285-.049118-8.930359-.234436-13.018372-.027405-.789429-.054809-1.578857.206131-2.963806.125687-1.743042-.036987-2.890686-.199646-4.038269-.017166-15.732971-.034317-31.465942.388733-47.756897.496124-5.118897.552048-9.679871.607971-14.240784 1.729248-17.021667 8.754776-24.391968 27.528702-26.848449 13.416107-1.755494 27.005798-2.184571 41.282074-2.884034 1.411804.431519 2.059479.637513 2.707275.637818 32.196656.017029 64.39328.026428 96.589875-.020142 1.237396-.001831 2.473999-.56073 3.710968-.859985z" fill="#96d9de"/><path d="m303.515076 842.912842c.815094-.32721 2.054229-.876099 3.294098-.877747 34.184692-.044739 68.369445-.035583 102.554199-.018921.648529.000305 1.296997.200257 2.241089.581421-1.086212.338623-2.468048.402893-4.718903.496155-7.987213.261292-15.106262.713806-22.223419.686035-25.199402-.098266-50.398193-.360779-75.597199-.561035-1.708496-.090881-3.416961-.181702-5.549865-.305908z" fill="#a9e6e9"/><path d="m475.93689 802.579956c-.348023-.904053-.899567-2.14093-.901642-3.378784-.047791-28.18927-.037689-56.378601-.021088-84.567932.000397-.648011.200592-1.295838.582947-2.238953.343384.450928.411438 1.1969.513153 2.757568.272156 11.410889.719421 22.007508.70224 32.603394-.028717 17.72345-.353943 35.446472-.554443 53.169678-.089569.440552-.179169.881103-.321167 1.655029z" fill="#a9e6e9"/><path d="m309.161438 843.593872c25.102509-.174866 50.3013.087647 75.500702.185913 7.117157.027771 14.236206-.424743 21.813537-.609741-.710113.639099-1.877777 1.74408-3.048889 1.747681-30.357086.093628-60.714599.082702-91.071869.028625-1.032928-.001892-2.064697-.637268-3.193481-1.352478z" fill="#2fa3af"/><path d="m415.667725 877.635559c-41.088776.319031-82.47342.348938-124.239685.322571.855743-.360291 2.092773-.928589 3.330444-.930054 39.557495-.045532 79.115021-.037781 118.672546-.020386.646973.000306 1.293854.220887 2.236695.627869z" fill="#2fa3af"/><path d="m476.628967 800.82605c-.17041-17.624329.154816-35.347351.183533-53.070801.017181-10.595886-.430084-21.192505-.621704-32.236633.632233.733398 1.724213 1.91278 1.728577 3.09613.096923 26.328125.085235 52.656677.031646 78.985046-.002136 1.043152-.620147 2.084961-1.322052 3.226258z" fill="#2fa3af"/><path d="m401.460999 677.068848c-.776703.332458-2.013306.891357-3.250702.893188-32.196595.04657-64.393219.037171-96.589875.020142-.647796-.000305-1.295471-.206299-2.237976-.594055 33.67627-.302613 67.647278-.327515 102.078553-.319275z" fill="#a9e6e9"/><path d="m319.030548 641.745667c22.665802-.002442 45.331604-.004883 68.46341-.015198-.693177.421814-1.851258 1.222656-3.01175 1.226135-21.490448.065491-42.98117.038208-64.471802.010132-.477416-.000611-.954498-.240112-1.449188-.694336.144776-.393005.307068-.4599.46933-.526733z" fill="#2fa3af"/><path d="m513.515503 779.110352c.100342 9.260253-.188416 18.610839-.532349 28.408325-.361023-6.286194-.811767-13.017212-.904175-19.753174-.039062-2.849609.675416-5.709473 1.436524-8.655151z" fill="#2fa3af"/><path d="m513.631836 735.333374c.322205 12.370361.355408 25.03656.340576 38.166504-.345032-.101257-.903076-.667297-.900635-1.231018.052674-12.213379.167908-24.426453.560059-36.935486z" fill="#2fa3af"/><path d="m230.056976 707.48584c-.010528 4.151916-.066452 8.71289-.49826 13.363281-.099625-4.258423.17662-8.606323.49826-13.363281z" fill="#a9e6e9"/><path d="m512.493774 810.116211c-.054016 4.389465-.490295 8.8703-1.193115 13.664185.09256-4.315552.451721-8.944214 1.193115-13.664185z" fill="#2fa3af"/><path d="m229.145889 801.485596c.525925 2.674987 1.014908 5.775512 1.228089 9.156616-.605545-2.723328-.935288-5.727234-1.228089-9.156616z" fill="#a9e6e9"/><path d="m229.069489 776.531494c.215011 3.633118.400314 7.721192.308303 12.098389-.297546-3.688416-.317779-7.665955-.308303-12.098389z" fill="#a9e6e9"/><path d="m229.076477 769.458557c.191849.76355.354523 1.911194.273499 3.26117-.263352-.824097-.28302-1.850586-.273499-3.26117z" fill="#a9e6e9"/><path d="m394.128754 636.140686c-.144867-.168213-.018738-.553223.022949-.751404s.448547-.277771.647858-.334717c-.04242.380127-.28418.8172-.670807 1.086121z" fill="#2fa3af"/><path d="m318.86853 641.593384c-.000244.219116-.162536.286011-.587433.368408-.262634.015503-.350158-.344116-.388763-.524414.270477-.233887.554749-.172607.976196.156006z" fill="#96d9de"/><path d="m578.766113 236.417038c-4.519226 4.832169-9.160949 5.950684-13.987854 3.303955-3.828308-2.099152-5.606628-5.670196-5.118896-9.940994.720581-6.308686 5.411316-9.433213 12.561279-8.788483 4.632813.41777 8.008728 4.781571 7.759766 10.287857-.072754 1.610565-.661682 3.197785-1.214295 5.137665z" fill="#e8d0b6"/><path d="m535.645996 224.426239c4.278687 5.904602 1.583069 11.579025-2.075928 14.477539-3.581726 2.837296-8.370605 2.910126-12.01184.134491-4.969361-3.788071-6.015381-9.900146-2.482544-14.506165 3.652893-4.762557 11.041992-4.955612 16.570312-.105865z" fill="#f5e3ce"/><path d="m611.307922 240.976608c-7.406494-2.436157-10.685424-7.47789-8.799316-12.927856 1.992432-5.757157 6.279785-8.157501 12.547607-7.024933 4.202088.759277 8.038514 5.765228 7.846863 10.239059-.226196 5.280793-4.960815 9.395157-11.595154 9.71373z" fill="#f0ddc6"/><path d="m819.206604 291.744629c.273682-1.332398.547302-2.664795.852844-4.337555.335572 1.399384.902649 3.138855.90448 4.878906.047547 46.457062.047913 92.914124-.00769 139.371155-.002014 1.70105-.649048 3.401276-1.413513 4.741852-.407959-25.341614-.400879-50.323242-.386841-75.30484.013061-23.116516.033508-46.233002.05072-69.349518z" fill="#cfb18f"/><path d="m671.4646 268.079102c-1.448243.329803-3.356507.881805-5.265381.883544-51.743042.047242-103.48645.102845-155.228943-.068359-4.809265-.0159-6.14917 1.28653-6.080414 6.088287.271515 18.963044.119659 37.932282.09552 56.89917-.002289 1.814148-.208282 3.628052-.59433 5.739777-.274627-22.787964-.274627-45.873657-.274627-69.576691 55.878448 0 111.383087 0 167.348175.034272z" fill="#fefdf4"/><path d="m818.888916 292.062683c.300476 22.798462.280029 45.914948.266968 69.031464-.014038 24.981598-.021118 49.963226.00647 75.409607-.049073.908447-.135804 1.352081-.289795 2.128143-.336426-1.095703-.839722-2.52359-.840882-3.951965-.039428-46.13739-.035034-92.274842-.004822-138.412232.000855-1.295807.35492-2.591339.862061-4.205017z" fill="#fefdf4"/><path d="m761.636963 267.628113c-14.352905.303039-29.001953.325134-44.112244.316345.107422-.321289.677063-.867065 1.244568-.864899 14.190674.054139 28.381043.166016 42.867676.548554z" fill="#cfb18f"/><path d="m688.525757 268.130737c-1.542664 3.041718-3.890686 2.347596-6.410523.370056 1.941407-.377777 3.960755-.395568 6.410523-.370056z" fill="#fefdf4"/><path d="m504.084351 340.50238c.206573 1.682068.379638 3.790162.296081 6.155915-.280945-1.73816-.305298-3.73404-.296081-6.155915z" fill="#fefdf4"/><path d="m504.088806 349.494751c.202667 1.367584.370361 3.150635.286194 5.178284-.274963-1.424561-.298035-3.093689-.286194-5.178284z" fill="#fefdf4"/><path d="m818.941284 441.83783c-.19342-.625641-.073669-1.359528.106751-2.459504.109253.539673.157776 1.445466-.106751 2.459504z" fill="#cfb18f"/><path d="m800.392334 460.117188c.460693-.277405 1.281494-.519043 2.294922-.544007-.516541.337677-1.225708.45874-2.294922.544007z" fill="#fefdf4"/><path d="m436.730591 877.143188c.29303.040528.277527.449219.274078.653687-.27005.158264-.536682.112-1.192657-.055664-.050995-.293762.287292-.466126.918579-.598023z" fill="#dfdedd"/><path d="m605.381592 390.653076c-.317261-10.028564-.348938-20.35437-.336792-31.143677.350036 2.243378.907104 4.949524.914856 7.657288.022094 7.729401-.179138 15.459412-.578064 23.486389z" fill="#ff5049"/><path d="m605.376831 317.666748c-.572754-2.580139-.869568-5.441528-.861694-8.546692.582336 2.592621.859985 5.429016.861694 8.546692z" fill="#ff5049"/><path d="m605.385925 414.654602c-.314453-3.372162-.349121-7.035461-.340393-11.153748.235657 3.317536.427918 7.090088.340393 11.153748z" fill="#ff5049"/><path d="m606.21106 419.852417c-.532532-.598816-.80243-1.377197-1.05188-2.481995.451721.549866.883117 1.426117 1.05188 2.481995z" fill="#ff5049"/><path d="m605.347534 334.747375c-.279602-.837493-.308777-1.87915-.293335-3.309509.210938.776001.37732 1.940705.293335 3.309509z" fill="#ff5049"/><path d="m605.335938 352.780121c-.267945-.553406-.295655-1.280884-.279786-2.37027.202393.490753.361206 1.343506.279786 2.37027z" fill="#ff5049"/><path d="m605.33606 341.780579c-.270264-.554139-.299317-1.282319-.28479-2.372834.204406.491364.365234 1.345093.28479 2.372834z" fill="#ff5049"/></svg>